<svg width="2793" height="1259" xmlns="http://www.w3.org/2000/svg" xmlns:xlink="http://www.w3.org/1999/xlink" xml:space="preserve" overflow="hidden"><g transform="translate(-951 -383)"><path d="M2417 631.125 2863.26 631.125 2863.26 644.875 2417 644.875ZM2856.38 617.375 2897.63 638 2856.38 658.625Z" fill="#A9D18E"/><path d="M1471 631.125 1882.76 631.125 1882.76 644.875 1471 644.875ZM1875.89 617.375 1917.14 638 1875.89 658.625Z" fill="#B65252"/><path d="M971.5 523.168C971.5 491.319 997.319 465.5 1029.17 465.5L1413.83 465.5C1445.68 465.5 1471.5 491.319 1471.5 523.168L1471.5 753.832C1471.5 785.681 1445.68 811.5 1413.83 811.5L1029.17 811.5C997.319 811.5 971.5 785.681 971.5 753.832Z" stroke="#000000" stroke-width="4.58333" stroke-miterlimit="8" fill="#B65252" fill-rule="evenodd"/><text font-family="Times New Roman,Times New Roman_MSFontService,sans-serif" font-weight="400" font-size="92" transform="matrix(1 0 0 1 1074.07 617)">Primary </text><text font-family="Times New Roman,Times New Roman_MSFontService,sans-serif" font-weight="400" font-size="92" transform="matrix(1 0 0 1 1033.39 727)">Controller</text><text font-family="Times New Roman,Times New Roman_MSFontService,sans-serif" font-style="italic" font-weight="700" font-size="110" transform="matrix(1 0 0 1 1616.35 593)">u</text><text font-family="Times New Roman,Times New Roman_MSFontService,sans-serif" font-weight="400" font-size="73" transform="matrix(1 0 0 1 1677.65 620)">des</text><text font-family="Times New Roman,Times New Roman_MSFontService,sans-serif" font-style="italic" font-weight="700" font-size="110" transform="matrix(1 0 0 1 2582.83 592)">u</text><text font-family="Times New Roman,Times New Roman_MSFontService,sans-serif" font-weight="400" font-size="73" transform="matrix(1 0 0 1 2644.13 619)">act</text><text font-family="Times New Roman,Times New Roman_MSFontService,sans-serif" font-weight="400" font-size="73" transform="matrix(1 0 0 1 3150.31 969)">System </text><text font-family="Times New Roman,Times New Roman_MSFontService,sans-serif" font-weight="400" font-size="73" transform="matrix(1 0 0 1 3150.31 1057)">response</text><text font-family="Times New Roman,Times New Roman_MSFontService,sans-serif" font-weight="400" font-size="73" transform="matrix(1 0 0 1 1408.38 1366)">Estimated states &amp; dynamics</text><path d="M2588.5 1284.17C2588.5 1252.32 2614.32 1226.5 2646.17 1226.5L3068.83 1226.5C3100.68 1226.5 3126.5 1252.32 3126.5 1284.17L3126.5 1514.83C3126.5 1546.68 3100.68 1572.5 3068.83 1572.5L2646.17 1572.5C2614.32 1572.5 2588.5 1546.68 2588.5 1514.83Z" stroke="#000000" stroke-width="4.58333" stroke-miterlimit="8" fill="#4472C4" fill-rule="evenodd"/><text fill="#FFFFFF" font-family="Times New Roman,Times New Roman_MSFontService,sans-serif" font-weight="700" font-size="92" transform="matrix(1 0 0 1 2643.69 1433)">Estimation</text><path d="M3162.5 1283.17C3162.5 1251.32 3188.32 1225.5 3220.17 1225.5L3642.83 1225.5C3674.68 1225.5 3700.5 1251.32 3700.5 1283.17L3700.5 1513.83C3700.5 1545.68 3674.68 1571.5 3642.83 1571.5L3220.17 1571.5C3188.32 1571.5 3162.5 1545.68 3162.5 1513.83Z" stroke="#000000" stroke-width="4.58333" stroke-miterlimit="8" fill="#4472C4" fill-rule="evenodd"/><text fill="#FFFFFF" font-family="Times New Roman,Times New Roman_MSFontService,sans-serif" font-weight="700" font-size="92" transform="matrix(1 0 0 1 3326.68 1377)">Fault </text><text fill="#FFFFFF" font-family="Times New Roman,Times New Roman_MSFontService,sans-serif" font-weight="700" font-size="92" transform="matrix(1 0 0 1 3245.32 1487)">Detection</text><path d="M6.875-0.00332726 7.02834 316.847-6.72166 316.853-6.875 0.00332726ZM20.775 309.965 0.16998 351.225-20.475 309.985Z" transform="matrix(-1 0 0 1 3119.17 814)"/><path d="M2552.03 1408.25 1214.12 1408.25 1214.12 845.375 1227.88 845.375 1227.88 1401.38 1221 1394.5 2552.03 1394.5ZM1200.38 852.25 1221 811 1241.62 852.25Z"/><path d="M0-6.875 9.81122-6.875 9.81122 385.085 2.93622 378.21 430.217 378.21 430.217 391.96-3.93878 391.96-3.93878 0 2.93622 6.875 0 6.875ZM423.342 364.46 464.592 385.085 423.342 405.71Z" transform="matrix(-1.83697e-16 -1 -1 1.83697e-16 2552.09 1275.59)"/><rect x="2898" y="388" width="441" height="429" stroke="#000000" stroke-width="10.3125" stroke-miterlimit="8" fill="#8FAADC"/><text font-family="Times New Roman,Times New Roman_MSFontService,sans-serif" font-weight="400" font-size="92" transform="matrix(1 0 0 1 3023.35 773)">Plant</text><g><g><g><path d="M198.988 239.027 224.577 213.438 233.006 221.867 207.418 247.456 198.988 239.027ZM190.258 179.421 198.687 187.85 173.099 213.438 164.67 205.009 190.258 179.421ZM222.47 147.51 230.899 155.939 207.418 179.421 198.988 170.992 222.47 147.51ZM215.847 205.009 190.258 230.598 181.829 222.169 207.418 196.58 215.847 205.009ZM215.847 187.85 239.328 164.369 247.757 172.798 224.276 196.279 215.847 187.85ZM241.435 213.438 233.006 205.009 256.487 181.528 264.916 189.957 241.435 213.438ZM68.9385 228.49 81.8833 215.546 94.828 228.49 68.9385 228.49ZM73.4541 207.116 60.2083 220.362 60.2083 193.871 73.4541 207.116ZM83.9905 124.029 75.5614 115.6 101.15 90.0114 109.579 98.4405 83.9905 124.029ZM66.8312 55.9937 75.2603 64.4229 49.6718 90.0114 41.2427 81.5822 66.8312 55.9937ZM107.472 32.5125 83.9905 55.9937 75.5614 47.5645 98.7416 24.0833 107.472 32.5125ZM92.4197 81.5822 66.8312 107.171 58.402 98.7416 83.9905 73.1531 92.4197 81.5822ZM92.4197 64.4229 115.901 40.9416 124.33 49.3708 100.849 72.852 92.4197 64.4229ZM118.008 90.0114 109.579 81.5822 133.06 58.101 141.489 66.5302 118.008 90.0114ZM273.346 181.528 230.899 139.081C228.49 136.673 225.48 135.469 222.47 135.469 219.459 135.469 216.148 136.673 214.04 139.081L190.258 162.562 181.829 154.133 211.632 124.33C214.04 121.922 215.245 118.911 215.245 115.901 215.245 112.589 214.04 109.579 211.632 107.472L206.815 102.354 217.954 96.3332 192.666 71.0458 186.646 82.1843 181.829 77.3676C179.421 74.9593 176.41 73.7551 173.4 73.7551 170.088 73.7551 167.078 74.9593 164.971 77.3676L135.168 107.171 126.437 98.7416 149.919 75.2603C152.327 72.852 153.531 69.8416 153.531 66.8312 153.531 63.5197 152.327 60.5093 149.919 58.402L107.472 15.6542C105.063 13.2458 102.053 12.0417 98.7416 12.0417 95.4301 12.0417 92.4197 13.2458 90.3124 15.6542L32.8135 73.1531C30.7062 75.2603 29.5021 78.2708 29.5021 81.5822 29.5021 84.8937 30.7062 87.9041 33.1146 90.0114L75.5614 132.458C77.9697 134.867 80.9801 136.071 83.9905 136.071 87.001 136.071 90.3124 134.867 92.4197 132.458L118.008 106.87 126.437 115.299 96.6343 145.102C94.226 147.51 93.0218 150.521 93.0218 153.531 93.0218 156.843 94.226 159.853 96.6343 161.96L105.364 170.389 96.3332 179.421C76.1635 163.465 51.7791 159.853 39.1354 172.798L48.1666 181.528 47.8656 226.684C41.8448 227.587 37.3291 233.006 37.6302 239.328 37.9312 245.65 43.0489 250.466 49.3708 250.466 55.6927 250.767 60.8104 245.951 61.7135 239.93L106.87 240.231 115.901 249.262C128.545 236.619 125.233 212.234 109.278 192.064L118.309 183.033 126.437 192.064C128.846 194.473 131.856 195.677 134.867 195.677 138.178 195.677 141.188 194.473 143.296 192.064L173.099 162.261 181.528 170.69 155.939 196.279C153.531 198.687 152.327 201.698 152.327 204.708 152.327 207.719 153.531 211.03 155.939 213.137L198.687 255.584C201.096 257.992 204.106 259.197 207.116 259.197 210.428 259.197 213.438 257.992 215.546 255.584L273.346 198.687C275.754 196.279 276.958 193.269 276.958 190.258 276.958 186.947 275.754 183.936 273.346 181.528Z" transform="matrix(1 0 0 1 2973 417)"/></g></g></g><path d="M2417 631.125 2794.38 631.125 2794.38 1130.84 2780.63 1130.84 2780.63 638 2787.5 644.875 2417 644.875ZM2808.13 1123.97 2787.5 1165.22 2766.88 1123.97Z" fill="#C5E0B4"/><path d="M1917.5 523.168C1917.5 491.319 1943.32 465.5 1975.17 465.5L2359.83 465.5C2391.68 465.5 2417.5 491.319 2417.5 523.168L2417.5 753.832C2417.5 785.681 2391.68 811.5 2359.83 811.5L1975.17 811.5C1943.32 811.5 1917.5 785.681 1917.5 753.832Z" stroke="#000000" stroke-width="4.58333" stroke-miterlimit="8" fill="#A9D18E" fill-rule="evenodd"/><text font-family="Times New Roman,Times New Roman_MSFontService,sans-serif" font-weight="400" font-size="92" transform="matrix(1 0 0 1 2067.85 672)">ASIF</text><rect x="2552" y="1167" width="1185" height="468" stroke="#000000" stroke-width="13.75" stroke-miterlimit="8" fill="none"/><path d="M2417 631.125 2863.26 631.125 2863.26 644.875 2417 644.875ZM2856.38 617.375 2897.63 638 2856.38 658.625Z" fill="#C5E0B4"/><path d="M1471 631.125 1882.76 631.125 1882.76 644.875 1471 644.875ZM1875.89 617.375 1917.14 638 1875.89 658.625Z" fill="#FF8F8F"/><path d="M953.5 523.168C953.5 491.319 979.319 465.5 1011.17 465.5L1413.83 465.5C1445.68 465.5 1471.5 491.319 1471.5 523.168L1471.5 753.832C1471.5 785.681 1445.68 811.5 1413.83 811.5L1011.17 811.5C979.319 811.5 953.5 785.681 953.5 753.832Z" stroke="#000000" stroke-width="4.58333" stroke-miterlimit="8" fill="#FF8F8F" fill-rule="evenodd"/><text font-family="Times New Roman,Times New Roman_MSFontService,sans-serif" font-weight="700" font-size="92" transform="matrix(1 0 0 1 1046.6 617)">Primary </text><text font-family="Times New Roman,Times New Roman_MSFontService,sans-serif" font-weight="700" font-size="92" transform="matrix(1 0 0 1 1006.74 727)">Controller</text><path d="M1917.5 523.168C1917.5 491.319 1943.32 465.5 1975.17 465.5L2359.83 465.5C2391.68 465.5 2417.5 491.319 2417.5 523.168L2417.5 753.832C2417.5 785.681 2391.68 811.5 2359.83 811.5L1975.17 811.5C1943.32 811.5 1917.5 785.681 1917.5 753.832Z" stroke="#000000" stroke-width="4.58333" stroke-miterlimit="8" fill="#C5E0B4" fill-rule="evenodd"/><text font-family="Times New Roman,Times New Roman_MSFontService,sans-serif" font-weight="700" font-size="92" transform="matrix(1 0 0 1 2077.7 617)">RTA </text><text font-family="Times New Roman,Times New Roman_MSFontService,sans-serif" font-weight="700" font-size="92" transform="matrix(1 0 0 1 2058.11 727)">Filter</text><rect x="2898" y="388" width="441" height="429" stroke="#000000" stroke-width="10.3125" stroke-miterlimit="8" fill="#8FAADC"/><text font-family="Times New Roman,Times New Roman_MSFontService,sans-serif" font-weight="700" font-size="92" transform="matrix(1 0 0 1 3013.04 773)">Plant</text><g><g><g><path d="M198.3 238.2 223.8 212.7 232.2 221.1 206.7 246.6 198.3 238.2ZM189.6 178.8 198 187.2 172.5 212.7 164.1 204.3 189.6 178.8ZM221.7 147 230.1 155.4 206.7 178.8 198.3 170.4 221.7 147ZM215.1 204.3 189.6 229.8 181.2 221.4 206.7 195.9 215.1 204.3ZM215.1 187.2 238.5 163.8 246.9 172.2 223.5 195.6 215.1 187.2ZM240.6 212.7 232.2 204.3 255.6 180.9 264 189.3 240.6 212.7ZM68.7 227.7 81.6 214.8 94.5 227.7 68.7 227.7ZM73.2 206.4 60 219.6 60 193.2 73.2 206.4ZM83.7 123.6 75.3 115.2 100.8 89.7 109.2 98.1 83.7 123.6ZM66.6 55.8 75 64.2 49.5 89.7 41.1 81.3 66.6 55.8ZM107.1 32.4 83.7 55.8 75.3 47.4 98.4 24 107.1 32.4ZM92.1 81.3 66.6 106.8 58.2 98.4 83.7 72.9 92.1 81.3ZM92.1 64.2 115.5 40.8 123.9 49.2 100.5 72.6 92.1 64.2ZM117.6 89.7 109.2 81.3 132.6 57.9 141 66.3 117.6 89.7ZM272.4 180.9 230.1 138.6C227.7 136.2 224.7 135 221.7 135 218.7 135 215.4 136.2 213.3 138.6L189.6 162 181.2 153.6 210.9 123.9C213.3 121.5 214.5 118.5 214.5 115.5 214.5 112.2 213.3 109.2 210.9 107.1L206.1 102 217.2 96 192 70.8 186 81.9 181.2 77.1C178.8 74.7 175.8 73.5 172.8 73.5 169.5 73.5 166.5 74.7 164.4 77.1L134.7 106.8 126 98.4 149.4 75C151.8 72.6 153 69.6 153 66.6 153 63.3 151.8 60.3 149.4 58.2L107.1 15.6C104.7 13.2 101.7 12 98.4 12 95.1 12 92.1 13.2 90 15.6L32.7 72.9C30.6 75 29.4 78 29.4 81.3 29.4 84.6 30.6 87.6 33 89.7L75.3 132C77.7 134.4 80.7 135.6 83.7 135.6 86.7 135.6 90 134.4 92.1 132L117.6 106.5 126 114.9 96.3 144.6C93.9 147 92.7 150 92.7 153 92.7 156.3 93.9 159.3 96.3 161.4L105 169.8 96 178.8C75.9 162.9 51.6 159.3 39 172.2L48 180.9 47.7 225.9C41.7 226.8 37.2 232.2 37.5 238.5 37.8 244.8 42.9 249.6 49.2 249.6 55.5 249.9 60.6 245.1 61.5 239.1L106.5 239.4 115.5 248.4C128.1 235.8 124.8 211.5 108.9 191.4L117.9 182.4 126 191.4C128.4 193.8 131.4 195 134.4 195 137.7 195 140.7 193.8 142.8 191.4L172.5 161.7 180.9 170.1 155.4 195.6C153 198 151.8 201 151.8 204 151.8 207 153 210.3 155.4 212.4L198 254.7C200.4 257.1 203.4 258.3 206.4 258.3 209.7 258.3 212.7 257.1 214.8 254.7L272.4 198C274.8 195.6 276 192.6 276 189.6 276 186.3 274.8 183.3 272.4 180.9Z" transform="matrix(1 0 0 1.00347 2976 419)"/></g></g></g><path d="M6.875-1.13188e-05 6.8753 184.83-6.8747 184.83-6.875 1.13188e-05ZM20.6253 177.955 0.000360892 219.205-20.6247 177.955Z" transform="matrix(1 0 0 -1 2167 1030.2)"/></g></svg>