<svg width="2375" height="704" xmlns="http://www.w3.org/2000/svg" xmlns:xlink="http://www.w3.org/1999/xlink" xml:space="preserve" overflow="hidden"><g transform="translate(-969 -383)"><path d="M2417 631.125 2863.26 631.125 2863.26 644.875 2417 644.875ZM2856.38 617.375 2897.63 638 2856.38 658.625Z" fill="#A9D18E"/><path d="M1471 631.125 1882.76 631.125 1882.76 644.875 1471 644.875ZM1875.89 617.375 1917.14 638 1875.89 658.625Z" fill="#B45454"/><path d="M971.5 523.168C971.5 491.319 997.319 465.5 1029.17 465.5L1413.83 465.5C1445.68 465.5 1471.5 491.319 1471.5 523.168L1471.5 753.832C1471.5 785.681 1445.68 811.5 1413.83 811.5L1029.17 811.5C997.319 811.5 971.5 785.681 971.5 753.832Z" stroke="#000000" stroke-width="4.58333" stroke-miterlimit="8" fill="#B45454" fill-rule="evenodd"/><text font-family="Times New Roman,Times New Roman_MSFontService,sans-serif" font-weight="400" font-size="92" transform="matrix(1 0 0 1 1074.07 617)">Primary </text><text font-family="Times New Roman,Times New Roman_MSFontService,sans-serif" font-weight="400" font-size="92" transform="matrix(1 0 0 1 1033.39 727)">Controller</text><path d="M1917.5 523.168C1917.5 491.319 1943.32 465.5 1975.17 465.5L2359.83 465.5C2391.68 465.5 2417.5 491.319 2417.5 523.168L2417.5 753.832C2417.5 785.681 2391.68 811.5 2359.83 811.5L1975.17 811.5C1943.32 811.5 1917.5 785.681 1917.5 753.832Z" stroke="#000000" stroke-width="4.58333" stroke-miterlimit="8" fill="#A9D18E" fill-rule="evenodd"/><text font-family="Times New Roman,Times New Roman_MSFontService,sans-serif" font-weight="400" font-size="92" transform="matrix(1 0 0 1 1973.96 672)">RTA Filter</text><text font-family="Times New Roman,Times New Roman_MSFontService,sans-serif" font-style="italic" font-weight="700" font-size="110" transform="matrix(1 0 0 1 1616.35 593)">u</text><text font-family="Times New Roman,Times New Roman_MSFontService,sans-serif" font-weight="400" font-size="73" transform="matrix(1 0 0 1 1677.65 620)">des</text><text font-family="Times New Roman,Times New Roman_MSFontService,sans-serif" font-style="italic" font-weight="700" font-size="110" transform="matrix(1 0 0 1 2582.83 597)">u</text><text font-family="Times New Roman,Times New Roman_MSFontService,sans-serif" font-weight="400" font-size="73" transform="matrix(1 0 0 1 2644.13 624)">act</text><path d="M0 6.875-220.585 6.875-213.71 0-213.71 1896-220.585 1889.12-33.3273 1889.12-33.3273 1902.87-227.46 1902.87-227.46-6.875 0-6.875ZM-40.2023 1875.37 1.04767 1896-40.2023 1916.62Z" transform="matrix(-6.12323e-17 -1 -1 6.12323e-17 3117 812.048)"/><rect x="2898" y="388" width="441" height="429" stroke="#000000" stroke-width="10.3125" stroke-miterlimit="8" fill="#8FAADC"/><text font-family="Times New Roman,Times New Roman_MSFontService,sans-serif" font-weight="400" font-size="92" transform="matrix(1 0 0 1 3023.35 773)">Plant</text><g><g><g><path d="M198.3 238.2 223.8 212.7 232.2 221.1 206.7 246.6 198.3 238.2ZM189.6 178.8 198 187.2 172.5 212.7 164.1 204.3 189.6 178.8ZM221.7 147 230.1 155.4 206.7 178.8 198.3 170.4 221.7 147ZM215.1 204.3 189.6 229.8 181.2 221.4 206.7 195.9 215.1 204.3ZM215.1 187.2 238.5 163.8 246.9 172.2 223.5 195.6 215.1 187.2ZM240.6 212.7 232.2 204.3 255.6 180.9 264 189.3 240.6 212.7ZM68.7 227.7 81.6 214.8 94.5 227.7 68.7 227.7ZM73.2 206.4 60 219.6 60 193.2 73.2 206.4ZM83.7 123.6 75.3 115.2 100.8 89.7 109.2 98.1 83.7 123.6ZM66.6 55.8 75 64.2 49.5 89.7 41.1 81.3 66.6 55.8ZM107.1 32.4 83.7 55.8 75.3 47.4 98.4 24 107.1 32.4ZM92.1 81.3 66.6 106.8 58.2 98.4 83.7 72.9 92.1 81.3ZM92.1 64.2 115.5 40.8 123.9 49.2 100.5 72.6 92.1 64.2ZM117.6 89.7 109.2 81.3 132.6 57.9 141 66.3 117.6 89.7ZM272.4 180.9 230.1 138.6C227.7 136.2 224.7 135 221.7 135 218.7 135 215.4 136.2 213.3 138.6L189.6 162 181.2 153.6 210.9 123.9C213.3 121.5 214.5 118.5 214.5 115.5 214.5 112.2 213.3 109.2 210.9 107.1L206.1 102 217.2 96 192 70.8 186 81.9 181.2 77.1C178.8 74.7 175.8 73.5 172.8 73.5 169.5 73.5 166.5 74.7 164.4 77.1L134.7 106.8 126 98.4 149.4 75C151.8 72.6 153 69.6 153 66.6 153 63.3 151.8 60.3 149.4 58.2L107.1 15.6C104.7 13.2 101.7 12 98.4 12 95.1 12 92.1 13.2 90 15.6L32.7 72.9C30.6 75 29.4 78 29.4 81.3 29.4 84.6 30.6 87.6 33 89.7L75.3 132C77.7 134.4 80.7 135.6 83.7 135.6 86.7 135.6 90 134.4 92.1 132L117.6 106.5 126 114.9 96.3 144.6C93.9 147 92.7 150 92.7 153 92.7 156.3 93.9 159.3 96.3 161.4L105 169.8 96 178.8C75.9 162.9 51.6 159.3 39 172.2L48 180.9 47.7 225.9C41.7 226.8 37.2 232.2 37.5 238.5 37.8 244.8 42.9 249.6 49.2 249.6 55.5 249.9 60.6 245.1 61.5 239.1L106.5 239.4 115.5 248.4C128.1 235.8 124.8 211.5 108.9 191.4L117.9 182.4 126 191.4C128.4 193.8 131.4 195 134.4 195 137.7 195 140.7 193.8 142.8 191.4L172.5 161.7 180.9 170.1 155.4 195.6C153 198 151.8 201 151.8 204 151.8 207 153 210.3 155.4 212.4L198 254.7C200.4 257.1 203.4 258.3 206.4 258.3 209.7 258.3 212.7 257.1 214.8 254.7L272.4 198C274.8 195.6 276 192.6 276 189.6 276 186.3 274.8 183.3 272.4 180.9Z" transform="matrix(1 0 0 1.00347 2980 413)"/></g></g></g><path d="M6.875-1.13188e-05 6.8753 184.83-6.8747 184.83-6.875 1.13188e-05ZM20.6253 177.955 0.000360892 219.205-20.6247 177.955Z" transform="matrix(1 0 0 -1 2167 1030.2)"/><text font-family="Times New Roman,Times New Roman_MSFontService,sans-serif" font-style="italic" font-weight="700" font-size="110" transform="matrix(1 0 0 1 2641.24 994)">x</text></g></svg>