<svg width="2413" height="713" xmlns="http://www.w3.org/2000/svg" xmlns:xlink="http://www.w3.org/1999/xlink" xml:space="preserve" overflow="hidden"><defs><filter id="fx0" x="-10%" y="-10%" width="120%" height="120%" filterUnits="userSpaceOnUse" primitiveUnits="userSpaceOnUse"><feComponentTransfer color-interpolation-filters="sRGB"><feFuncR type="discrete" tableValues="0 0"/><feFuncG type="discrete" tableValues="0 0"/><feFuncB type="discrete" tableValues="0 0"/><feFuncA type="linear" slope="0.4" intercept="0"/></feComponentTransfer><feGaussianBlur stdDeviation="6.11111 6.11111"/></filter><filter id="fx1" x="-10%" y="-10%" width="120%" height="120%" filterUnits="userSpaceOnUse" primitiveUnits="userSpaceOnUse"><feComponentTransfer color-interpolation-filters="sRGB"><feFuncR type="discrete" tableValues="0 0"/><feFuncG type="discrete" tableValues="0 0"/><feFuncB type="discrete" tableValues="0 0"/><feFuncA type="linear" slope="0.4" intercept="0"/></feComponentTransfer><feGaussianBlur stdDeviation="6.11111 6.11111"/></filter><filter id="fx2" x="-10%" y="-10%" width="120%" height="120%" filterUnits="userSpaceOnUse" primitiveUnits="userSpaceOnUse"><feComponentTransfer color-interpolation-filters="sRGB"><feFuncR type="discrete" tableValues="0 0"/><feFuncG type="discrete" tableValues="0 0"/><feFuncB type="discrete" tableValues="0 0"/><feFuncA type="linear" slope="0.4" intercept="0"/></feComponentTransfer><feGaussianBlur stdDeviation="6.11111 6.11111"/></filter><filter id="fx3" x="-10%" y="-10%" width="120%" height="120%" filterUnits="userSpaceOnUse" primitiveUnits="userSpaceOnUse"><feComponentTransfer color-interpolation-filters="sRGB"><feFuncR type="discrete" tableValues="0 0"/><feFuncG type="discrete" tableValues="0 0"/><feFuncB type="discrete" tableValues="0 0"/><feFuncA type="linear" slope="0.4" intercept="0"/></feComponentTransfer><feGaussianBlur stdDeviation="6.11111 6.11111"/></filter><filter id="fx4" x="-10%" y="-10%" width="120%" height="120%" filterUnits="userSpaceOnUse" primitiveUnits="userSpaceOnUse"><feComponentTransfer color-interpolation-filters="sRGB"><feFuncR type="discrete" tableValues="0 0"/><feFuncG type="discrete" tableValues="0 0"/><feFuncB type="discrete" tableValues="0 0"/><feFuncA type="linear" slope="0.4" intercept="0"/></feComponentTransfer><feGaussianBlur stdDeviation="6.11111 6.11111"/></filter><clipPath id="clip5"><rect x="960" y="374" width="2413" height="713"/></clipPath><clipPath id="clip6"><path d="M1029.17 465.5C997.319 465.5 971.5 491.319 971.5 523.168L971.5 753.832C971.5 785.681 997.319 811.5 1029.17 811.5L1443.83 811.5C1475.68 811.5 1501.5 785.681 1501.5 753.832L1501.5 523.168C1501.5 491.319 1475.68 465.5 1443.83 465.5ZM960 374 3373 374 3373 1087 960 1087Z" fill-rule="evenodd" clip-rule="evenodd"/></clipPath><clipPath id="clip7"><rect x="56" y="52" width="451" height="217"/></clipPath><clipPath id="clip8"><path d="M1975.17 465.5C1943.32 465.5 1917.5 491.319 1917.5 523.168L1917.5 753.832C1917.5 785.681 1943.32 811.5 1975.17 811.5L2359.83 811.5C2391.68 811.5 2417.5 785.681 2417.5 753.832L2417.5 523.168C2417.5 491.319 2391.68 465.5 2359.83 465.5ZM960 374 3373 374 3373 1087 960 1087Z" fill-rule="evenodd" clip-rule="evenodd"/></clipPath><clipPath id="clip9"><rect x="56" y="52" width="285" height="217"/></clipPath><clipPath id="clip10"><path d="M2898 388 2898 817 3339 817 3339 388ZM960 374 3373 374 3373 1087 960 1087Z" fill-rule="evenodd" clip-rule="evenodd"/></clipPath></defs><g clip-path="url(#clip5)" transform="translate(-960 -374)"><path d="M2417 631.125 2863.26 631.125 2863.26 644.875 2417 644.875ZM2856.38 617.375 2897.63 638 2856.38 658.625Z" fill="#C5E0B4"/><path d="M1501 631.125 1882.56 631.125 1882.56 644.875 1501 644.875ZM1875.69 617.375 1916.94 638 1875.69 658.625Z" fill="#FF8F8F"/><g clip-path="url(#clip6)"><g filter="url(#fx0)" transform="translate(959 453)"><g><path d="M22.2227 79.8903C22.2227 48.0413 48.0413 22.2227 79.8903 22.2227L494.555 22.2227C526.404 22.2227 552.223 48.0413 552.223 79.8903L552.223 310.555C552.223 342.404 526.404 368.223 494.555 368.223L79.8903 368.223C48.0413 368.223 22.2227 342.404 22.2227 310.555Z" stroke="#000000" stroke-width="5" stroke-miterlimit="8" fill="#FF8F8F" fill-rule="evenodd"/></g></g><g clip-path="url(#clip7)" filter="url(#fx1)" transform="translate(966 490)"><g><path d="M24.8418-27.582 24.8418-10.6914C24.8418-7.39713 25.0439-5.32324 25.4482-4.46973 25.8525-3.61621 26.5713-2.9349 27.6045-2.42578 28.6377-1.91667 30.5319-1.66211 33.2871-1.66211L33.2871 0 2.33594 0 2.33594-1.66211C5.15104-1.66211 7.06022-1.92415 8.06348-2.44824 9.06673-2.97233 9.77051-3.65365 10.1748-4.49219 10.5791-5.33073 10.7812-7.39713 10.7812-10.6914L10.7812-50.2227C10.7812-53.5169 10.5791-55.5908 10.1748-56.4443 9.77051-57.2978 9.05924-57.9792 8.04101-58.4883 7.02279-58.9974 5.12109-59.2519 2.33594-59.2519L2.33594-60.9141 28.8848-60.9141C37.6296-60.9141 43.9036-59.3568 47.707-56.2422 51.5104-53.1276 53.4121-49.2344 53.4121-44.5625 53.4121-40.6094 52.1842-37.2253 49.7285-34.4102 47.2728-31.595 43.8887-29.6784 39.5762-28.6602 36.6712-27.9414 31.7598-27.582 24.8418-27.582ZM24.8418-57.4102 24.8418-31.0859C25.8301-31.026 26.5788-30.9961 27.0879-30.9961 30.7415-30.9961 33.5566-32.0817 35.5332-34.2529 37.5098-36.4241 38.498-39.7858 38.498-44.3379 38.498-48.86 37.5098-52.1693 35.5332-54.2656 33.5566-56.362 30.6068-57.4102 26.6836-57.4102ZM76.6751-42.0019 76.6751-32.4785C79.4603-36.821 81.901-39.7034 83.9974-41.126 86.0937-42.5485 88.1152-43.2598 90.0618-43.2598 91.7389-43.2598 93.0791-42.7432 94.0824-41.71 95.0856-40.6768 95.5872-39.2168 95.5872-37.3301 95.5872-35.3236 95.1006-33.7663 94.1273-32.6582 93.154-31.5501 91.9785-30.9961 90.6009-30.9961 89.0137-30.9961 87.6361-31.5052 86.4681-32.5234 85.3001-33.5417 84.6113-34.1107 84.4017-34.2305 84.1022-34.4102 83.7578-34.5 83.3685-34.5 82.5-34.5 81.6764-34.1706 80.8978-33.5117 79.6699-32.4935 78.7415-31.041 78.1126-29.1543 77.1543-26.2493 76.6751-23.0449 76.6751-19.541L76.6751-9.88281 76.72-7.36719C76.72-5.66016 76.8249-4.56706 77.0345-4.08789 77.3939-3.2793 77.9254-2.68783 78.6292-2.31348 79.333-1.93913 80.5234-1.70703 82.2005-1.61719L82.2005 0 59.515 0 59.515-1.61719C61.3418-1.76693 62.5771-2.26855 63.221-3.12207 63.8649-3.97559 64.1868-6.22917 64.1868-9.88281L64.1868-33.1074C64.1868-35.5033 64.067-37.0306 63.8275-37.6894 63.528-38.528 63.0937-39.1419 62.5247-39.5312 61.9557-39.9206 60.9525-40.1901 59.515-40.3398L59.515-42.0019ZM110.03-62.3516C111.977-62.3516 113.624-61.6702 114.971-60.3076 116.319-58.945 116.993-57.3053 116.993-55.3887 116.993-53.472 116.312-51.8398 114.949-50.4922 113.586-49.1445 111.947-48.4707 110.03-48.4707 108.113-48.4707 106.481-49.1445 105.133-50.4922 103.786-51.8398 103.112-53.472 103.112-55.3887 103.112-57.3053 103.786-58.945 105.133-60.3076 106.481-61.6702 108.113-62.3516 110.03-62.3516ZM116.319-42.0019 116.319-8.71484C116.319-5.75 116.663-3.85579 117.352-3.03223 118.041-2.20866 119.389-1.73698 121.395-1.61719L121.395 0 98.7096 0 98.7096-1.61719C100.566-1.67708 101.944-2.21615 102.842-3.23437 103.441-3.92318 103.741-5.75 103.741-8.71484L103.741-33.2422C103.741-36.207 103.396-38.1012 102.708-38.9248 102.019-39.7484 100.686-40.22 98.7096-40.3398L98.7096-42.0019ZM142.561-42.0019 142.561-36.4766C144.867-38.9922 147-40.7516 148.962-41.7549 150.923-42.7581 153.072-43.2598 155.408-43.2598 158.104-43.2598 160.365-42.6309 162.191-41.373 164.018-40.1152 165.426-38.1986 166.414-35.623 168.81-38.3184 171.108-40.265 173.31-41.4629 175.511-42.6608 177.809-43.2598 180.205-43.2598 183.11-43.2598 185.423-42.5934 187.146-41.2607 188.868-39.9281 190.065-38.236 190.739-36.1846 191.413-34.1331 191.75-30.8613 191.75-26.3691L191.75-9.16406C191.75-5.92969 192.042-3.92318 192.626-3.14453 193.21-2.36589 194.43-1.85677 196.287-1.61719L196.287 0 174.59 0 174.59-1.61719C176.297-1.76693 177.555-2.42578 178.363-3.59375 178.902-4.40234 179.172-6.25911 179.172-9.16406L179.172-27.2227C179.172-30.9661 179.022-33.347 178.723-34.3652 178.423-35.3835 177.951-36.1396 177.308-36.6338 176.664-37.1279 175.908-37.375 175.039-37.375 173.751-37.375 172.449-36.9033 171.131-35.96 169.813-35.0166 168.48-33.6016 167.133-31.7148L167.133-9.16406C167.133-6.13932 167.387-4.23763 167.896-3.45898 168.585-2.35091 169.903-1.73698 171.85-1.61719L171.85 0 150.107 0 150.107-1.61719C151.275-1.67708 152.196-1.96908 152.87-2.49316 153.544-3.01725 153.993-3.64616 154.218-4.37988 154.442-5.11361 154.555-6.70833 154.555-9.16406L154.555-27.2227C154.555-31.026 154.405-33.4069 154.105-34.3652 153.806-35.3236 153.304-36.0723 152.601-36.6113 151.897-37.1504 151.141-37.4199 150.332-37.4199 149.134-37.4199 148.041-37.1055 147.053-36.4766 145.645-35.5482 144.148-33.9609 142.561-31.7148L142.561-9.16406C142.561-6.19922 142.853-4.24512 143.437-3.30176 144.021-2.3584 145.241-1.79687 147.098-1.61719L147.098 0 125.445 0 125.445-1.61719C127.212-1.79687 128.47-2.36589 129.219-3.32422 129.728-3.98307 129.982-5.92969 129.982-9.16406L129.982-32.8828C129.982-36.0573 129.69-38.0338 129.106-38.8125 128.522-39.5911 127.302-40.1003 125.445-40.3398L125.445-42.0019ZM224.508-6.19922C219.387-1.67708 214.79 0.583984 210.717 0.583984 208.322 0.583984 206.33-0.202148 204.743-1.77441 203.156-3.34668 202.362-5.31575 202.362-7.68164 202.362-10.8861 203.74-13.7686 206.495-16.3291 209.25-18.8896 215.255-22.2962 224.508-26.5488L224.508-30.7715C224.508-33.946 224.336-35.945 223.992-36.7686 223.647-37.5921 222.996-38.3109 222.038-38.9248 221.079-39.5387 220.001-39.8457 218.803-39.8457 216.857-39.8457 215.255-39.4115 213.997-38.543 213.218-38.0039 212.829-37.375 212.829-36.6562 212.829-36.0273 213.248-35.2487 214.087-34.3203 215.225-33.0325 215.794-31.7897 215.794-30.5918 215.794-29.1243 215.247-27.874 214.154-26.8408 213.061-25.8076 211.631-25.291 209.864-25.291 207.977-25.291 206.397-25.86 205.125-26.998 203.852-28.1361 203.215-29.4687 203.215-30.9961 203.215-33.1523 204.069-35.2113 205.776-37.1728 207.483-39.1344 209.864-40.6393 212.919-41.6875 215.973-42.7357 219.148-43.2598 222.442-43.2598 226.425-43.2598 229.577-42.4137 231.898-40.7217 234.219-39.0296 235.724-37.1953 236.413-35.2187 236.832-33.9609 237.042-31.071 237.042-26.5488L237.042-10.2422C237.042-8.32552 237.117-7.12012 237.266-6.62598 237.416-6.13183 237.641-5.76497 237.94-5.52539 238.24-5.28581 238.584-5.16601 238.973-5.16602 239.752-5.16601 240.546-5.72005 241.354-6.82812L242.702-5.75C241.204-3.53385 239.655-1.92415 238.052-0.920898 236.45 0.0823567 234.631 0.583984 232.594 0.583984 230.199 0.583984 228.327 0.0224609 226.979-1.10059 225.632-2.22363 224.808-3.92318 224.508-6.19922ZM224.508-9.47851 224.508-23.5391C220.885-21.4128 218.189-19.1367 216.423-16.7109 215.255-15.0937 214.671-13.4616 214.671-11.8145 214.671-10.4368 215.165-9.22396 216.153-8.17578 216.902-7.36719 217.95-6.96289 219.298-6.96289 220.795-6.96289 222.532-7.80143 224.508-9.47851ZM264.592-42.0019 264.592-32.4785C267.377-36.821 269.818-39.7034 271.914-41.126 274.01-42.5485 276.032-43.2598 277.978-43.2598 279.656-43.2598 280.996-42.7432 281.999-41.71 283.002-40.6768 283.504-39.2168 283.504-37.3301 283.504-35.3236 283.017-33.7663 282.044-32.6582 281.071-31.5501 279.895-30.9961 278.518-30.9961 276.93-30.9961 275.553-31.5052 274.385-32.5234 273.217-33.5417 272.528-34.1107 272.318-34.2305 272.019-34.4102 271.674-34.5 271.285-34.5 270.417-34.5 269.593-34.1706 268.814-33.5117 267.587-32.4935 266.658-31.041 266.029-29.1543 265.071-26.2493 264.592-23.0449 264.592-19.541L264.592-9.88281 264.637-7.36719C264.637-5.66016 264.742-4.56706 264.951-4.08789 265.31-3.2793 265.842-2.68783 266.546-2.31348 267.25-1.93913 268.44-1.70703 270.117-1.61719L270.117 0 247.432 0 247.432-1.61719C249.258-1.76693 250.494-2.26855 251.138-3.12207 251.782-3.97559 252.103-6.22917 252.104-9.88281L252.104-33.1074C252.103-35.5033 251.984-37.0306 251.744-37.6894 251.445-38.528 251.01-39.1419 250.441-39.5312 249.872-39.9206 248.869-40.1901 247.432-40.3398L247.432-42.0019ZM307.111 1.70703 293.544-29.4238C291.508-34.1256 290.003-37.0156 289.03-38.0937 288.056-39.1719 286.881-39.9206 285.503-40.3398L285.503-42.0019 307.829-42.0019 307.829-40.3398C306.362-40.2799 305.329-39.9954 304.73-39.4863 304.131-38.9772 303.831-38.3633 303.831-37.6445 303.831-36.5065 304.58-34.2604 306.077-30.9062L313.265-14.4648 318.161-27.1777C319.928-31.6999 320.812-34.8444 320.812-36.6113 320.812-37.7194 320.445-38.6029 319.711-39.2617 318.978-39.9206 317.682-40.2799 315.826-40.3398L315.826-42.0019 329.886-42.0019 329.886-40.3398C328.508-40.1901 327.385-39.6585 326.517-38.7451 325.648-37.8317 324.196-34.7246 322.159-29.4238L310.165 1.70703C307.141 9.49349 304.895 14.2852 303.427 16.082 301.361 18.5977 298.77 19.8555 295.656 19.8555 293.17 19.8555 291.156 19.1442 289.614 17.7217 288.071 16.2992 287.3 14.5846 287.3 12.5781 287.3 10.8411 287.832 9.40364 288.895 8.26562 289.958 7.1276 291.268 6.55859 292.826 6.55859 294.323 6.55859 295.528 7.03776 296.442 7.99609 297.355 8.95443 297.827 10.4368 297.857 12.4434 297.887 13.5814 298.021 14.3151 298.261 14.6445 298.501 14.974 298.845 15.1387 299.294 15.1387 300.013 15.1387 300.777 14.7044 301.585 13.8359 302.783 12.5781 304.191 9.70312 305.808 5.21094Z" transform="matrix(1 0 0 1 114.844 136)"/><path d="M61.4082-62.3066 61.4082-41.1934 59.6562-41.1934C58.3385-46.7038 55.8828-50.9264 52.2891-53.8613 48.6953-56.7962 44.6224-58.2637 40.0703-58.2637 36.2669-58.2637 32.778-57.1706 29.6035-54.9844 26.429-52.7982 24.1081-49.9381 22.6406-46.4043 20.7539-41.8822 19.8105-36.8509 19.8105-31.3105 19.8105-25.86 20.4993-20.8962 21.877-16.4189 23.2546-11.9417 25.4108-8.55762 28.3457-6.2666 31.2806-3.97559 35.084-2.83008 39.7559-2.83008 43.5892-2.83008 47.1006-3.66862 50.29-5.3457 53.4795-7.02279 56.8411-9.91276 60.375-14.0156L60.375-8.75976C56.9609-5.19596 53.4046-2.61296 49.7061-1.01074 46.0075 0.591471 41.6875 1.39258 36.7461 1.39258 30.2474 1.39258 24.4749 0.0898436 19.4287-2.51562 14.3825-5.12109 10.4893-8.86458 7.74902-13.7461 5.00879-18.6276 3.63867-23.8236 3.63867-29.334 3.63867-35.1439 5.15853-40.6543 8.19824-45.8652 11.238-51.0762 15.3408-55.1191 20.5068-57.9941 25.6728-60.8691 31.1608-62.3066 36.9707-62.3066 41.2533-62.3066 45.7754-61.3783 50.5371-59.5215 53.2923-58.4434 55.0443-57.9043 55.793-57.9043 56.7513-57.9043 57.5824-58.2562 58.2861-58.96 58.9899-59.6637 59.4466-60.7793 59.6562-62.3066ZM89.3685-43.2598C93.0221-43.2598 96.4212-42.3164 99.5658-40.4297 102.71-38.543 105.099-35.8626 106.731-32.3887 108.363-28.9147 109.179-25.1113 109.179-20.9785 109.179-15.0189 107.667-10.0326 104.642-6.01953 100.988-1.16797 95.942 1.25781 89.5033 1.25781 83.1842 1.25781 78.3177-0.958333 74.9036-5.39062 71.4896-9.82292 69.7825-14.959 69.7825-20.7988 69.7825-26.8184 71.527-32.0667 75.0159-36.5439 78.5049-41.0212 83.2891-43.2598 89.3685-43.2598ZM89.5482-40.0703C88.0208-40.0703 86.7106-39.4938 85.6175-38.3408 84.5244-37.1878 83.8057-34.9118 83.4613-31.5127 83.1169-28.1136 82.9447-23.3893 82.9447-17.3398 82.9447-14.1354 83.1543-11.1406 83.5736-8.35547 83.903-6.22917 84.6068-4.61198 85.6849-3.50391 86.763-2.39583 87.9909-1.8418 89.3685-1.8418 90.7161-1.8418 91.8392-2.21615 92.7376-2.96484 93.9056-3.98307 94.6842-5.4056 95.0736-7.23242 95.6725-10.0775 95.972-15.8275 95.972-24.4824 95.972-29.5736 95.6875-33.07 95.1185-34.9717 94.5495-36.8734 93.7109-38.2585 92.6029-39.1269 91.8242-39.7559 90.806-40.0703 89.5482-40.0703ZM132.551-42.0019 132.551-36.5664C134.708-38.9023 136.774-40.6019 138.751-41.665 140.727-42.7282 142.854-43.2598 145.13-43.2598 147.855-43.2598 150.116-42.5036 151.913-40.9912 153.71-39.4788 154.908-37.5996 155.507-35.3535 155.986-33.6465 156.225-30.3672 156.225-25.5156L156.225-9.16406C156.225-5.92969 156.517-3.91569 157.101-3.12207 157.685-2.32845 158.906-1.82682 160.762-1.61719L160.762 0 139.514 0 139.514-1.61719C141.102-1.82682 142.24-2.48568 142.928-3.59375 143.408-4.34245 143.647-6.19922 143.647-9.16406L143.647-27.8516C143.647-31.2956 143.512-33.4668 143.243-34.3652 142.973-35.2637 142.517-35.96 141.873-36.4541 141.229-36.9482 140.518-37.1953 139.739-37.1953 137.163-37.1953 134.768-35.3535 132.551-31.6699L132.551-9.16406C132.551-6.01953 132.843-4.02799 133.427-3.18945 134.011-2.35091 135.097-1.82682 136.684-1.61719L136.684 0 115.436 0 115.436-1.61719C117.203-1.79687 118.461-2.36589 119.21-3.32422 119.719-3.98307 119.973-5.92969 119.973-9.16406L119.973-32.8828C119.973-36.0573 119.681-38.0338 119.097-38.8125 118.513-39.5911 117.293-40.1003 115.436-40.3398L115.436-42.0019ZM183.047-57.3652 183.047-42.0019 193.02-42.0019 193.02-37.5547 183.047-37.5547 183.047-11.6348C183.047-9.20898 183.159-7.64421 183.384-6.94043 183.608-6.23665 184.005-5.66764 184.574-5.2334 185.143-4.79915 185.667-4.58203 186.146-4.58203 188.093-4.58203 189.935-6.06445 191.672-9.0293L193.02-8.04101C190.594-2.29102 186.656 0.583984 181.205 0.583984 178.54 0.583984 176.286-0.157227 174.444-1.63965 172.603-3.12207 171.427-4.77669 170.918-6.60352 170.618-7.62174 170.469-10.377 170.469-14.8691L170.469-37.5547 164.988-37.5547 164.988-39.1269C168.762-41.7923 171.974-44.5924 174.624-47.5273 177.274-50.4622 179.588-53.7415 181.564-57.3652ZM214.175-42.0019 214.175-32.4785C216.96-36.821 219.401-39.7034 221.497-41.126 223.594-42.5485 225.615-43.2598 227.562-43.2598 229.239-43.2598 230.579-42.7432 231.582-41.71 232.586-40.6768 233.087-39.2168 233.087-37.3301 233.087-35.3236 232.601-33.7663 231.627-32.6582 230.654-31.5501 229.478-30.9961 228.101-30.9961 226.514-30.9961 225.136-31.5052 223.968-32.5234 222.8-33.5417 222.111-34.1107 221.902-34.2305 221.602-34.4102 221.258-34.5 220.868-34.5 220-34.5 219.176-34.1706 218.398-33.5117 217.17-32.4935 216.242-31.041 215.613-29.1543 214.654-26.2493 214.175-23.0449 214.175-19.541L214.175-9.88281 214.22-7.36719C214.22-5.66016 214.325-4.56706 214.534-4.08789 214.894-3.2793 215.425-2.68783 216.129-2.31348 216.833-1.93913 218.023-1.70703 219.701-1.61719L219.701 0 197.015 0 197.015-1.61719C198.842-1.76693 200.077-2.26855 200.721-3.12207 201.365-3.97559 201.687-6.22917 201.687-9.88281L201.687-33.1074C201.687-35.5033 201.567-37.0306 201.327-37.6894 201.028-38.528 200.594-39.1419 200.025-39.5312 199.456-39.9206 198.452-40.1901 197.015-40.3398L197.015-42.0019ZM255.583-43.2598C259.237-43.2598 262.636-42.3164 265.78-40.4297 268.925-38.543 271.313-35.8626 272.945-32.3887 274.578-28.9147 275.394-25.1113 275.394-20.9785 275.394-15.0189 273.881-10.0326 270.856-6.01953 267.203-1.16797 262.157 1.25781 255.718 1.25781 249.399 1.25781 244.532-0.958333 241.118-5.39062 237.704-9.82292 235.997-14.959 235.997-20.7988 235.997-26.8184 237.742-32.0667 241.231-36.5439 244.719-41.0212 249.504-43.2598 255.583-43.2598ZM255.763-40.0703C254.235-40.0703 252.925-39.4938 251.832-38.3408 250.739-37.1878 250.02-34.9118 249.676-31.5127 249.331-28.1136 249.159-23.3893 249.159-17.3398 249.159-14.1354 249.369-11.1406 249.788-8.35547 250.118-6.22917 250.821-4.61198 251.899-3.50391 252.978-2.39583 254.205-1.8418 255.583-1.8418 256.931-1.8418 258.054-2.21615 258.952-2.96484 260.12-3.98307 260.899-5.4056 261.288-7.23242 261.887-10.0775 262.187-15.8275 262.187-24.4824 262.187-29.5736 261.902-33.07 261.333-34.9717 260.764-36.8734 259.925-38.2585 258.817-39.1269 258.039-39.7559 257.021-40.0703 255.763-40.0703ZM298.047-60.9141 298.047-8.71484C298.047-5.75 298.392-3.85579 299.08-3.03223 299.769-2.20866 301.117-1.73698 303.123-1.61719L303.123 0 280.438 0 280.438-1.61719C282.295-1.67708 283.672-2.21615 284.571-3.23437 285.17-3.92318 285.469-5.75 285.469-8.71484L285.469-52.1992C285.469-55.1341 285.125-57.0133 284.436-57.8369 283.747-58.6605 282.414-59.1322 280.438-59.2519L280.438-60.9141ZM323.256-60.9141 323.256-8.71484C323.256-5.75 323.6-3.85579 324.289-3.03223 324.978-2.20866 326.325-1.73698 328.332-1.61719L328.332 0 305.646 0 305.646-1.61719C307.503-1.67708 308.881-2.21615 309.779-3.23437 310.378-3.92318 310.677-5.75 310.677-8.71484L310.677-52.1992C310.677-55.1341 310.333-57.0133 309.644-57.8369 308.955-58.6605 307.623-59.1322 305.646-59.2519L305.646-60.9141ZM367.601-22.5059 344.556-22.5059C344.825-16.9355 346.308-12.5332 349.003-9.29883 351.069-6.81315 353.555-5.57031 356.46-5.57031 358.257-5.57031 359.889-6.07194 361.357-7.07519 362.824-8.07845 364.396-9.88281 366.073-12.4883L367.601-11.5C365.325-6.85807 362.809-3.57129 360.054-1.63965 357.299 0.291992 354.109 1.25781 350.485 1.25781 344.256 1.25781 339.539-1.13802 336.335-5.92969 333.759-9.79297 332.472-14.5846 332.472-20.3047 332.472-27.3125 334.366-32.8903 338.154-37.0381 341.943-41.1859 346.383-43.2598 351.474-43.2598 355.726-43.2598 359.417-41.5153 362.547-38.0264 365.676-34.5374 367.361-29.3639 367.601-22.5059ZM356.55-25.5156C356.55-30.3372 356.288-33.6465 355.764-35.4434 355.24-37.2402 354.424-38.6029 353.315-39.5312 352.687-40.0703 351.848-40.3398 350.8-40.3398 349.243-40.3398 347.97-39.5762 346.982-38.0488 345.215-35.3835 344.331-31.7298 344.331-27.0879L344.331-25.5156ZM390.129-42.0019 390.129-32.4785C392.914-36.821 395.355-39.7034 397.452-41.126 399.548-42.5485 401.569-43.2598 403.516-43.2598 405.193-43.2598 406.533-42.7432 407.537-41.71 408.54-40.6768 409.041-39.2168 409.041-37.3301 409.041-35.3236 408.555-33.7663 407.581-32.6582 406.608-31.5501 405.433-30.9961 404.055-30.9961 402.468-30.9961 401.09-31.5052 399.922-32.5234 398.754-33.5417 398.065-34.1107 397.856-34.2305 397.556-34.4102 397.212-34.5 396.823-34.5 395.954-34.5 395.131-34.1706 394.352-33.5117 393.124-32.4935 392.196-31.041 391.567-29.1543 390.608-26.2493 390.129-23.0449 390.129-19.541L390.129-9.88281 390.174-7.36719C390.174-5.66016 390.279-4.56706 390.489-4.08789 390.848-3.2793 391.38-2.68783 392.083-2.31348 392.787-1.93913 393.978-1.70703 395.655-1.61719L395.655 0 372.969 0 372.969-1.61719C374.796-1.76693 376.031-2.26855 376.675-3.12207 377.319-3.97559 377.641-6.22917 377.641-9.88281L377.641-33.1074C377.641-35.5033 377.521-37.0306 377.282-37.6894 376.982-38.528 376.548-39.1419 375.979-39.5312 375.41-39.9206 374.407-40.1901 372.969-40.3398L372.969-42.0019Z" transform="matrix(1 0 0 1 74.9918 246)"/></g></g></g><path d="M971.5 523.168C971.5 491.319 997.319 465.5 1029.17 465.5L1443.83 465.5C1475.68 465.5 1501.5 491.319 1501.5 523.168L1501.5 753.832C1501.5 785.681 1475.68 811.5 1443.83 811.5L1029.17 811.5C997.319 811.5 971.5 785.681 971.5 753.832Z" stroke="#000000" stroke-width="4.58333" stroke-miterlimit="8" fill="#FF8F8F" fill-rule="evenodd"/><text font-family="Times New Roman,Times New Roman_MSFontService,sans-serif" font-weight="700" font-size="92" transform="matrix(1 0 0 1 1071.12 617)">Primary </text><text font-family="Times New Roman,Times New Roman_MSFontService,sans-serif" font-weight="700" font-size="92" transform="matrix(1 0 0 1 1031.27 727)">Controller</text><g clip-path="url(#clip8)"><g filter="url(#fx2)" transform="translate(1905 453)"><g><path d="M22.2227 79.8906C22.2227 48.0415 48.0415 22.2227 79.8905 22.2227L464.555 22.2227C496.404 22.2227 522.223 48.0415 522.223 79.8906L522.223 310.555C522.223 342.404 496.404 368.223 464.555 368.223L79.8905 368.223C48.0415 368.223 22.2227 342.404 22.2227 310.555Z" stroke="#000000" stroke-width="5" stroke-miterlimit="8" fill="#C5E0B4" fill-rule="evenodd"/></g></g><g clip-path="url(#clip9)" filter="url(#fx3)" transform="translate(1980 490)"><g><path d="M43.2148-62.3066 43.709-42.0019 41.8672-42.0019C40.9987-47.0931 38.8649-51.1885 35.4658-54.2881 32.0667-57.3877 28.3906-58.9375 24.4375-58.9375 21.3828-58.9375 18.9645-58.1214 17.1826-56.4893 15.4007-54.8571 14.5098-52.9779 14.5098-50.8516 14.5098-49.5039 14.8242-48.306 15.4531-47.2578 16.3216-45.8503 17.7142-44.4577 19.6309-43.0801 21.0384-42.0918 24.2878-40.3398 29.3789-37.8242 36.5065-34.3203 41.3131-31.0111 43.7988-27.8965 46.2546-24.7819 47.4824-21.2181 47.4824-17.2051 47.4824-12.1139 45.4984-7.73405 41.5303-4.06543 37.5622-0.39681 32.5234 1.4375 26.4141 1.4375 24.4974 1.4375 22.6855 1.24284 20.9785 0.853516 19.2715 0.464193 17.1302-0.269531 14.5547-1.34766 13.1172-1.94661 11.9342-2.24609 11.0059-2.24609 10.2272-2.24609 9.40364-1.94661 8.53516-1.34766 7.66667-0.748698 6.96289 0.164714 6.42383 1.39258L4.76172 1.39258 4.76172-21.6074 6.42383-21.6074C7.74154-15.1387 10.2796-10.2048 14.0381-6.80566 17.7965-3.40658 21.847-1.70703 26.1895-1.70703 29.5436-1.70703 32.2165-2.62044 34.208-4.44727 36.1995-6.27409 37.1953-8.40039 37.1953-10.8262 37.1953-12.2637 36.8135-13.6562 36.0498-15.0039 35.2861-16.3516 34.1256-17.6318 32.5684-18.8447 31.0111-20.0576 28.2559-21.6374 24.3027-23.584 18.7624-26.3092 14.7793-28.6302 12.3535-30.5469 9.92773-32.4635 8.06348-34.6048 6.76074-36.9707 5.45801-39.3366 4.80664-41.9421 4.80664-44.7871 4.80664-49.6387 6.58854-53.7715 10.1523-57.1855 13.7161-60.5996 18.2083-62.3066 23.6289-62.3066 25.6055-62.3066 27.5221-62.0671 29.3789-61.5879 30.7865-61.2285 32.501-60.5622 34.5225-59.5889 36.5439-58.6156 37.959-58.1289 38.7676-58.1289 39.5462-58.1289 40.1601-58.3685 40.6094-58.8477 41.0586-59.3268 41.4779-60.4798 41.8672-62.3066ZM77.2689-6.19922C72.1478-1.67708 67.5508 0.583984 63.4779 0.583984 61.082 0.583984 59.0905-0.202148 57.5033-1.77441 55.916-3.34668 55.1224-5.31575 55.1224-7.68164 55.1224-10.8861 56.5-13.7686 59.2552-16.3291 62.0104-18.8896 68.015-22.2962 77.2689-26.5488L77.2689-30.7715C77.2689-33.946 77.0967-35.945 76.7523-36.7686 76.4079-37.5921 75.7565-38.3109 74.7982-38.9248 73.8398-39.5387 72.7617-39.8457 71.5638-39.8457 69.6172-39.8457 68.015-39.4115 66.7572-38.543 65.9785-38.0039 65.5892-37.375 65.5892-36.6562 65.5892-36.0273 66.0085-35.2487 66.847-34.3203 67.985-33.0325 68.554-31.7897 68.554-30.5918 68.554-29.1243 68.0075-27.874 66.9144-26.8408 65.8213-25.8076 64.3913-25.291 62.6243-25.291 60.7376-25.291 59.1579-25.86 57.8851-26.998 56.6123-28.1361 55.9759-29.4687 55.9759-30.9961 55.9759-33.1523 56.8294-35.2113 58.5365-37.1728 60.2435-39.1344 62.6243-40.6393 65.679-41.6875 68.7337-42.7357 71.9082-43.2598 75.2025-43.2598 79.1855-43.2598 82.3376-42.4137 84.6585-40.7217 86.9795-39.0296 88.4844-37.1953 89.1732-35.2187 89.5924-33.9609 89.8021-31.071 89.8021-26.5488L89.8021-10.2422C89.8021-8.32552 89.8769-7.12012 90.0267-6.62598 90.1764-6.13183 90.401-5.76497 90.7005-5.52539 91-5.28581 91.3444-5.16601 91.7337-5.16602 92.5124-5.16601 93.306-5.72005 94.1146-6.82812L95.4622-5.75C93.9648-3.53385 92.415-1.92415 90.8128-0.920898 89.2106 0.0823567 87.3913 0.583984 85.3548 0.583984 82.959 0.583984 81.0872 0.0224609 79.7396-1.10059 78.3919-2.22363 77.5684-3.92318 77.2689-6.19922ZM77.2689-9.47851 77.2689-23.5391C73.6452-21.4128 70.9499-19.1367 69.1829-16.7109 68.015-15.0937 67.431-13.4616 67.431-11.8145 67.431-10.4368 67.9251-9.22396 68.9134-8.17578 69.6621-7.36719 70.7103-6.96289 72.0579-6.96289 73.5553-6.96289 75.2923-7.80143 77.2689-9.47851ZM118.34-37.5996 118.34-8.44531C118.34-5.63021 118.64-3.86328 119.239-3.14453 120.197-2.03646 121.964-1.52734 124.54-1.61719L124.54 0 99.7878 0 99.7878-1.61719C101.674-1.64714 103.015-1.86426 103.808-2.26855 104.602-2.67285 105.148-3.23437 105.448-3.95312 105.747-4.67187 105.897-6.16927 105.897-8.44531L105.897-37.5996 99.7878-37.5996 99.7878-42.0019 105.897-42.0019 105.897-45.1016 105.852-47.2129C105.852-51.5254 107.432-55.1191 110.591-57.9941 113.751-60.8691 118.026-62.3066 123.417-62.3066 127.1-62.3066 129.833-61.6178 131.615-60.2402 133.397-58.8626 134.288-57.3353 134.288-55.6582 134.288-54.3105 133.734-53.1426 132.626-52.1543 131.518-51.166 130.05-50.6719 128.223-50.6719 126.666-50.6719 125.431-51.0762 124.517-51.8848 123.604-52.6934 123.147-53.5918 123.147-54.5801 123.147-54.8496 123.237-55.4036 123.417-56.2422 123.536-56.7513 123.596-57.2305 123.596-57.6797 123.596-58.3086 123.417-58.7728 123.057-59.0723 122.578-59.5215 121.994-59.7461 121.305-59.7461 120.437-59.7461 119.711-59.3867 119.127-58.668 118.543-57.9492 118.251-56.7962 118.251-55.209L118.34-47.3477 118.34-42.0019 124.54-42.0019 124.54-37.5996ZM165.865-22.5059 142.82-22.5059C143.09-16.9355 144.572-12.5332 147.268-9.29883 149.334-6.81315 151.82-5.57031 154.725-5.57031 156.521-5.57031 158.154-6.07194 159.621-7.07519 161.089-8.07845 162.661-9.88281 164.338-12.4883L165.865-11.5C163.589-6.85807 161.074-3.57129 158.318-1.63965 155.563 0.291992 152.374 1.25781 148.75 1.25781 142.521 1.25781 137.804-1.13802 134.6-5.92969 132.024-9.79297 130.736-14.5846 130.736-20.3047 130.736-27.3125 132.631-32.8903 136.419-37.0381 140.207-41.1859 144.647-43.2598 149.738-43.2598 153.991-43.2598 157.682-41.5153 160.812-38.0264 163.941-34.5374 165.626-29.3639 165.865-22.5059ZM154.814-25.5156C154.814-30.3372 154.552-33.6465 154.028-35.4434 153.504-37.2402 152.688-38.6029 151.58-39.5312 150.951-40.0703 150.113-40.3398 149.064-40.3398 147.507-40.3398 146.234-39.5762 145.246-38.0488 143.479-35.3835 142.596-31.7298 142.596-27.0879L142.596-25.5156ZM187.63-57.3652 187.63-42.0019 197.603-42.0019 197.603-37.5547 187.63-37.5547 187.63-11.6348C187.63-9.20898 187.742-7.64421 187.967-6.94043 188.192-6.23665 188.589-5.66764 189.158-5.2334 189.727-4.79915 190.251-4.58203 190.73-4.58203 192.676-4.58203 194.518-6.06445 196.255-9.0293L197.603-8.04101C195.177-2.29102 191.239 0.583984 185.788 0.583984 183.123 0.583984 180.869-0.157227 179.028-1.63965 177.186-3.12207 176.01-4.77669 175.501-6.60352 175.202-7.62174 175.052-10.377 175.052-14.8691L175.052-37.5547 169.572-37.5547 169.572-39.1269C173.345-41.7923 176.557-44.5924 179.207-47.5273 181.858-50.4622 184.171-53.7415 186.148-57.3652ZM220.6 1.70703 207.034-29.4238C204.997-34.1256 203.492-37.0156 202.519-38.0937 201.546-39.1719 200.37-39.9206 198.993-40.3398L198.993-42.0019 221.319-42.0019 221.319-40.3398C219.852-40.2799 218.818-39.9954 218.219-39.4863 217.62-38.9772 217.321-38.3633 217.321-37.6445 217.321-36.5065 218.07-34.2604 219.567-30.9062L226.755-14.4648 231.651-27.1777C233.418-31.6999 234.301-34.8444 234.301-36.6113 234.301-37.7194 233.935-38.6029 233.201-39.2617 232.467-39.9206 231.172-40.2799 229.315-40.3398L229.315-42.0019 243.376-42.0019 243.376-40.3398C241.998-40.1901 240.875-39.6585 240.007-38.7451 239.138-37.8317 237.686-34.7246 235.649-29.4238L223.655 1.70703C220.63 9.49349 218.384 14.2852 216.917 16.082 214.85 18.5977 212.26 19.8555 209.145 19.8555 206.659 19.8555 204.645 19.1442 203.103 17.7217 201.561 16.2992 200.79 14.5846 200.79 12.5781 200.79 10.8411 201.321 9.40364 202.384 8.26562 203.448 7.1276 204.758 6.55859 206.315 6.55859 207.812 6.55859 209.018 7.03776 209.931 7.99609 210.845 8.95443 211.316 10.4368 211.346 12.4434 211.376 13.5814 211.511 14.3151 211.751 14.6445 211.99 14.974 212.335 15.1387 212.784 15.1387 213.503 15.1387 214.266 14.7044 215.075 13.8359 216.273 12.5781 217.68 9.70312 219.298 5.21094Z" transform="matrix(1 0 0 1 74.9407 136)"/><path d="M25.291-57.4102 25.291-32.3887 27.043-32.3887C29.7383-32.3887 31.9394-32.793 33.6465-33.6016 35.3535-34.4101 36.7985-35.7728 37.9814-37.6894 39.1644-39.6061 39.9355-42.1966 40.2949-45.4609L41.8672-45.4609 41.8672-14.8691 40.2949-14.8691C39.7259-20.6491 38.1761-24.46 35.6455-26.3018 33.1149-28.1436 30.2474-29.0644 27.043-29.0645L25.291-29.0645 25.291-10.4219C25.291-7.30729 25.4632-5.36068 25.8076-4.58203 26.152-3.80338 26.8258-3.12207 27.8291-2.53809 28.8324-1.9541 30.1875-1.66211 31.8945-1.66211L33.916-1.66211 33.916 0 2.06641 0 2.06641-1.66211 4.08789-1.66211C5.85482-1.66211 7.27734-1.97656 8.35547-2.60547 9.13411-3.02474 9.73307-3.74349 10.1523-4.76172 10.4818-5.48047 10.6465-7.36719 10.6465-10.4219L10.6465-50.4922C10.6465-53.6068 10.4818-55.5534 10.1523-56.332 9.82292-57.1107 9.15657-57.792 8.15332-58.376 7.15006-58.96 5.79492-59.2519 4.08789-59.2519L2.06641-59.2519 2.06641-60.9141 53.457-60.9141 53.457-43.4394 51.6152-43.4394C51.196-47.5423 50.1253-50.582 48.4033-52.5586 46.6813-54.5352 44.1881-55.9277 40.9238-56.7363 39.1269-57.1855 35.8027-57.4102 30.9512-57.4102ZM69.3529-62.3516C71.2995-62.3516 72.9466-61.6702 74.2943-60.3076 75.6419-58.945 76.3158-57.3053 76.3158-55.3887 76.3158-53.472 75.6344-51.8398 74.2718-50.4922 72.9092-49.1445 71.2695-48.4707 69.3529-48.4707 67.4362-48.4707 65.804-49.1445 64.4564-50.4922 63.1087-51.8398 62.4349-53.472 62.4349-55.3887 62.4349-57.3053 63.1087-58.945 64.4564-60.3076 65.804-61.6702 67.4362-62.3516 69.3529-62.3516ZM75.6419-42.0019 75.6419-8.71484C75.6419-5.75 75.9863-3.85579 76.6751-3.03223 77.3639-2.20866 78.7116-1.73698 80.7181-1.61719L80.7181 0 58.0326 0 58.0326-1.61719C59.8893-1.67708 61.2669-2.21615 62.1654-3.23437 62.7643-3.92318 63.0638-5.75 63.0638-8.71484L63.0638-33.2422C63.0638-36.207 62.7194-38.1012 62.0306-38.9248 61.3418-39.7484 60.0091-40.22 58.0326-40.3398L58.0326-42.0019ZM100.895-60.9141 100.895-8.71484C100.895-5.75 101.24-3.85579 101.928-3.03223 102.617-2.20866 103.965-1.73698 105.971-1.61719L105.971 0 83.2858 0 83.2858-1.61719C85.1426-1.67708 86.5202-2.21615 87.4186-3.23437 88.0176-3.92318 88.317-5.75 88.3171-8.71484L88.3171-52.1992C88.317-55.1341 87.9726-57.0133 87.2839-57.8369 86.595-58.6605 85.2624-59.1322 83.2858-59.2519L83.2858-60.9141ZM126.328-57.3652 126.328-42.0019 136.301-42.0019 136.301-37.5547 126.328-37.5547 126.328-11.6348C126.328-9.20898 126.44-7.64421 126.665-6.94043 126.89-6.23665 127.286-5.66764 127.855-5.2334 128.424-4.79915 128.949-4.58203 129.428-4.58203 131.374-4.58203 133.216-6.06445 134.953-9.0293L136.301-8.04101C133.875-2.29102 129.937 0.583984 124.486 0.583984 121.821 0.583984 119.567-0.157227 117.726-1.63965 115.884-3.12207 114.708-4.77669 114.199-6.60352 113.9-7.62174 113.75-10.377 113.75-14.8691L113.75-37.5547 108.27-37.5547 108.27-39.1269C112.043-41.7923 115.255-44.5924 117.905-47.5273 120.556-50.4622 122.869-53.7415 124.846-57.3652ZM175.605-22.5059 152.56-22.5059C152.829-16.9355 154.312-12.5332 157.007-9.29883 159.074-6.81315 161.559-5.57031 164.464-5.57031 166.261-5.57031 167.893-6.07194 169.361-7.07519 170.828-8.07845 172.4-9.88281 174.077-12.4883L175.605-11.5C173.329-6.85807 170.813-3.57129 168.058-1.63965 165.303 0.291992 162.113 1.25781 158.49 1.25781 152.26 1.25781 147.544-1.13802 144.339-5.92969 141.764-9.79297 140.476-14.5846 140.476-20.3047 140.476-27.3125 142.37-32.8903 146.159-37.0381 149.947-41.1859 154.387-43.2598 159.478-43.2598 163.73-43.2598 167.422-41.5153 170.551-38.0264 173.681-34.5374 175.365-29.3639 175.605-22.5059ZM164.554-25.5156C164.554-30.3372 164.292-33.6465 163.768-35.4434 163.244-37.2402 162.428-38.6029 161.32-39.5312 160.691-40.0703 159.852-40.3398 158.804-40.3398 157.247-40.3398 155.974-39.5762 154.986-38.0488 153.219-35.3835 152.335-31.7298 152.335-27.0879L152.335-25.5156ZM198.133-42.0019 198.133-32.4785C200.919-36.821 203.359-39.7034 205.456-41.126 207.552-42.5485 209.574-43.2598 211.52-43.2598 213.197-43.2598 214.537-42.7432 215.541-41.71 216.544-40.6768 217.046-39.2168 217.046-37.3301 217.046-35.3236 216.559-33.7663 215.586-32.6582 214.612-31.5501 213.437-30.9961 212.059-30.9961 210.472-30.9961 209.094-31.5052 207.926-32.5234 206.758-33.5417 206.07-34.1107 205.86-34.2305 205.561-34.4102 205.216-34.5 204.827-34.5 203.958-34.5 203.135-34.1706 202.356-33.5117 201.128-32.4935 200.2-31.041 199.571-29.1543 198.613-26.2493 198.133-23.0449 198.133-19.541L198.133-9.88281 198.178-7.36719C198.178-5.66016 198.283-4.56706 198.493-4.08789 198.852-3.2793 199.384-2.68783 200.088-2.31348 200.791-1.93913 201.982-1.70703 203.659-1.61719L203.659 0 180.973 0 180.973-1.61719C182.8-1.76693 184.035-2.26855 184.679-3.12207 185.323-3.97559 185.645-6.22917 185.645-9.88281L185.645-33.1074C185.645-35.5033 185.525-37.0306 185.286-37.6894 184.986-38.528 184.552-39.1419 183.983-39.5312 183.414-39.9206 182.411-40.1901 180.973-40.3398L180.973-42.0019Z" transform="matrix(1 0 0 1 87.8198 246)"/></g></g></g><path d="M1917.5 523.168C1917.5 491.319 1943.32 465.5 1975.17 465.5L2359.83 465.5C2391.68 465.5 2417.5 491.319 2417.5 523.168L2417.5 753.832C2417.5 785.681 2391.68 811.5 2359.83 811.5L1975.17 811.5C1943.32 811.5 1917.5 785.681 1917.5 753.832Z" stroke="#000000" stroke-width="4.58333" stroke-miterlimit="8" fill="#C5E0B4" fill-rule="evenodd"/><text font-family="Times New Roman,Times New Roman_MSFontService,sans-serif" font-weight="700" font-size="92" transform="matrix(1 0 0 1 2045.22 617)">Safety</text><text font-family="Times New Roman,Times New Roman_MSFontService,sans-serif" font-weight="700" font-size="92" transform="matrix(1 0 0 1 2058.1 727)">Filter</text><text font-family="Times New Roman,Times New Roman_MSFontService,sans-serif" font-style="italic" font-weight="700" font-size="110" transform="matrix(1 0 0 1 1616.35 593)">u</text><text font-family="Times New Roman,Times New Roman_MSFontService,sans-serif" font-weight="400" font-size="73" transform="matrix(1 0 0 1 1677.65 620)">des</text><text font-family="Times New Roman,Times New Roman_MSFontService,sans-serif" font-style="italic" font-weight="700" font-size="110" transform="matrix(1 0 0 1 2582.83 597)">u</text><text font-family="Times New Roman,Times New Roman_MSFontService,sans-serif" font-weight="400" font-size="73" transform="matrix(1 0 0 1 2644.13 624)">act</text><path d="M0 6.875-220.586 6.875-213.711 0-213.711 1880.9-220.586 1874.02-33.3273 1874.02-33.3273 1887.77-227.461 1887.77-227.461-6.875 0-6.875ZM-40.2023 1860.27 1.04767 1880.9-40.2023 1901.52Z" transform="matrix(-6.12323e-17 -1 -1 6.12323e-17 3116.9 812.048)"/><g clip-path="url(#clip10)"><g filter="url(#fx4)" transform="translate(2883 373)"><g><rect x="24.7229" y="24.7228" width="441" height="429" stroke="#000000" stroke-width="10" stroke-miterlimit="8" fill="#8FAADC"/></g></g></g><rect x="2898" y="388" width="441" height="429" stroke="#000000" stroke-width="10.3125" stroke-miterlimit="8" fill="#8FAADC"/><text font-family="Times New Roman,Times New Roman_MSFontService,sans-serif" font-weight="700" font-size="92" transform="matrix(1 0 0 1 3013.04 773)">Plant</text><g><g><g><path d="M198.3 238.2 223.8 212.7 232.2 221.1 206.7 246.6 198.3 238.2ZM189.6 178.8 198 187.2 172.5 212.7 164.1 204.3 189.6 178.8ZM221.7 147 230.1 155.4 206.7 178.8 198.3 170.4 221.7 147ZM215.1 204.3 189.6 229.8 181.2 221.4 206.7 195.9 215.1 204.3ZM215.1 187.2 238.5 163.8 246.9 172.2 223.5 195.6 215.1 187.2ZM240.6 212.7 232.2 204.3 255.6 180.9 264 189.3 240.6 212.7ZM68.7 227.7 81.6 214.8 94.5 227.7 68.7 227.7ZM73.2 206.4 60 219.6 60 193.2 73.2 206.4ZM83.7 123.6 75.3 115.2 100.8 89.7 109.2 98.1 83.7 123.6ZM66.6 55.8 75 64.2 49.5 89.7 41.1 81.3 66.6 55.8ZM107.1 32.4 83.7 55.8 75.3 47.4 98.4 24 107.1 32.4ZM92.1 81.3 66.6 106.8 58.2 98.4 83.7 72.9 92.1 81.3ZM92.1 64.2 115.5 40.8 123.9 49.2 100.5 72.6 92.1 64.2ZM117.6 89.7 109.2 81.3 132.6 57.9 141 66.3 117.6 89.7ZM272.4 180.9 230.1 138.6C227.7 136.2 224.7 135 221.7 135 218.7 135 215.4 136.2 213.3 138.6L189.6 162 181.2 153.6 210.9 123.9C213.3 121.5 214.5 118.5 214.5 115.5 214.5 112.2 213.3 109.2 210.9 107.1L206.1 102 217.2 96 192 70.8 186 81.9 181.2 77.1C178.8 74.7 175.8 73.5 172.8 73.5 169.5 73.5 166.5 74.7 164.4 77.1L134.7 106.8 126 98.4 149.4 75C151.8 72.6 153 69.6 153 66.6 153 63.3 151.8 60.3 149.4 58.2L107.1 15.6C104.7 13.2 101.7 12 98.4 12 95.1 12 92.1 13.2 90 15.6L32.7 72.9C30.6 75 29.4 78 29.4 81.3 29.4 84.6 30.6 87.6 33 89.7L75.3 132C77.7 134.4 80.7 135.6 83.7 135.6 86.7 135.6 90 134.4 92.1 132L117.6 106.5 126 114.9 96.3 144.6C93.9 147 92.7 150 92.7 153 92.7 156.3 93.9 159.3 96.3 161.4L105 169.8 96 178.8C75.9 162.9 51.6 159.3 39 172.2L48 180.9 47.7 225.9C41.7 226.8 37.2 232.2 37.5 238.5 37.8 244.8 42.9 249.6 49.2 249.6 55.5 249.9 60.6 245.1 61.5 239.1L106.5 239.4 115.5 248.4C128.1 235.8 124.8 211.5 108.9 191.4L117.9 182.4 126 191.4C128.4 193.8 131.4 195 134.4 195 137.7 195 140.7 193.8 142.8 191.4L172.5 161.7 180.9 170.1 155.4 195.6C153 198 151.8 201 151.8 204 151.8 207 153 210.3 155.4 212.4L198 254.7C200.4 257.1 203.4 258.3 206.4 258.3 209.7 258.3 212.7 257.1 214.8 254.7L272.4 198C274.8 195.6 276 192.6 276 189.6 276 186.3 274.8 183.3 272.4 180.9Z" transform="matrix(1 0 0 1.00347 2980 413)"/></g></g></g><path d="M6.875-1.13188e-05 6.8753 184.83-6.8747 184.83-6.875 1.13188e-05ZM20.6253 177.955 0.000360892 219.205-20.6247 177.955Z" transform="matrix(1 0 0 -1 2167 1030.2)"/><text font-family="Times New Roman,Times New Roman_MSFontService,sans-serif" font-style="italic" font-weight="700" font-size="110" transform="matrix(1 0 0 1 2625.54 994)">x</text></g></svg>